<?xml version="1.0" encoding="UTF-8" standalone="no"?>
<svg
   xmlns:dc="http://purl.org/dc/elements/1.1/"
   xmlns:cc="http://creativecommons.org/ns#"
   xmlns:rdf="http://www.w3.org/1999/02/22-rdf-syntax-ns#"
   xmlns:svg="http://www.w3.org/2000/svg"
   xmlns="http://www.w3.org/2000/svg"
   version="1.1"
   id="svg2"
   height="16"
   width="16">
  <defs
     id="defs4">
    <linearGradient
       id="linearGradient5199">
      <stop
         id="stop5201"
         offset="0"
         style="stop-color:#ff0000;stop-opacity:1;" />
      <stop
         id="stop5203"
         offset="1"
         style="stop-color:#ffe0e0;stop-opacity:1;" />
    </linearGradient>
  </defs>
  <metadata
     id="metadata7">
    <rdf:RDF>
      <cc:Work
         rdf:about="">
        <dc:format>image/svg+xml</dc:format>
        <dc:type
           rdf:resource="http://purl.org/dc/dcmitype/StillImage" />
        <dc:title></dc:title>
      </cc:Work>
    </rdf:RDF>
  </metadata>
  <g
     transform="translate(0,-1036.3622)"
     id="layer1">
    <path
       d="m 4.3855177,1038.5487 c -3.4e-6,0.181 -0.032721,0.358 -0.098161,0.5309 -0.065445,0.1729 -0.158932,0.3182 -0.2804618,0.4358 -0.1664116,0.1595 -0.3519839,0.2798 -0.5567182,0.3612 -0.2047405,0.081 -0.4594934,0.1224 -0.76426,0.1224 H 2.0156118 v 1.3171 H 0.93863647 v -4.0438 H 2.7111586 c 0.2655018,0 0.4894039,0.022 0.6717074,0.067 0.1822972,0.044 0.343563,0.1109 0.4837975,0.1995 0.1682735,0.107 0.296819,0.2437 0.3856356,0.4102 0.088809,0.1665 0.1332159,0.3667 0.1332194,0.6002 z m -1.1134355,0.024 c -2.7e-6,-0.1142 -0.031788,-0.2121 -0.095358,-0.2946 -0.063574,-0.082 -0.1374291,-0.1398 -0.2215653,-0.1725 -0.1121871,-0.043 -0.2215677,-0.068 -0.328141,-0.072 -0.1065775,0 -0.2486784,-0.011 -0.4263025,-0.011 H 2.0156102 v 1.2114 H 2.324119 c 0.1832332,0 0.3342152,-0.012 0.4529464,-0.033 0.1187266,-0.022 0.2182908,-0.065 0.2986922,-0.1304 0.069178,-0.058 0.1191939,-0.1271 0.1500475,-0.2077 0.030848,-0.08 0.046274,-0.1788 0.046277,-0.2946 z"
       style="font-style:normal;font-variant:normal;font-weight:bold;font-stretch:normal;font-size:14px;line-height:117.99999475%;font-family:Verdana;-inkscape-font-specification:'Verdana Bold';text-align:center;text-anchor:middle;fill:#0000ff;fill-opacity:1;stroke-width:0.98406655"
       id="path5385" />
    <path
       d="M 8.1851054,1041.2556 H 7.1754407 v -0.3315 c -0.1869773,0.1355 -0.3580592,0.2384 -0.5132459,0.3088 -0.1551909,0.071 -0.3402963,0.1057 -0.5553156,0.1057 -0.3477742,0 -0.6156159,-0.095 -0.8035246,-0.2862 -0.1879104,-0.1908 -0.2818652,-0.4726 -0.2818648,-0.8454 v -1.9557 h 1.0152738 v 1.4901 c -1.4e-6,0.1517 0.00515,0.2779 0.015428,0.3787 0.010284,0.1007 0.034123,0.1841 0.071519,0.2501 0.035522,0.066 0.089278,0.1141 0.1612657,0.1443 0.071983,0.03 0.1724824,0.045 0.3014968,0.045 0.086007,0 0.1813635,-0.016 0.2860718,-0.045 0.1047034,-0.03 0.2056703,-0.075 0.3028994,-0.1336 v -2.1296 h 1.0096646 z"
       style="font-style:normal;font-variant:normal;font-weight:bold;font-stretch:normal;font-size:14px;line-height:117.99999475%;font-family:Verdana;-inkscape-font-specification:'Verdana Bold';text-align:center;text-anchor:middle;fill:#0000ff;fill-opacity:1;stroke-width:0.97668302"
       id="path5387" />
    <path
       d="m 11.381698,1039.1979 h -0.08974 c -0.043,-0.015 -0.112187,-0.026 -0.207541,-0.034 -0.09536,-0.011 -0.174825,-0.011 -0.238393,-0.011 -0.143973,0 -0.271116,0.011 -0.38143,0.026 -0.110317,0.018 -0.229045,0.05 -0.356187,0.093 v 2.0423 H 9.0987427 v -3.05 h 1.0096643 v 0.4481 c 0.222499,-0.1847 0.416017,-0.3072 0.580557,-0.3679 0.164537,-0.061 0.315985,-0.091 0.454349,-0.091 0.03552,0 0.07572,0 0.120599,0 0.04487,0 0.08413,0 0.117794,0.011 z"
       style="font-style:normal;font-variant:normal;font-weight:bold;font-stretch:normal;font-size:14px;line-height:117.99999475%;font-family:Verdana;-inkscape-font-specification:'Verdana Bold';text-align:center;text-anchor:middle;fill:#0000ff;fill-opacity:1;stroke-width:0.98406655"
       id="path5389" />
    <path
       d="m 15.104111,1040.0214 h -2.311009 c 0.01495,0.2168 0.108911,0.3826 0.281864,0.4975 0.17295,0.115 0.427703,0.1726 0.76426,0.1726 0.213149,0 0.419755,-0.034 0.619821,-0.1011 0.200061,-0.066 0.358055,-0.1396 0.473982,-0.2169 h 0.112186 v 0.7123 c -0.228113,0.081 -0.443136,0.1387 -0.645064,0.1748 -0.201935,0.036 -0.425371,0.053 -0.670305,0.053 -0.631976,0 -1.116241,-0.1248 -1.452795,-0.3744 -0.336555,-0.2499 -0.504833,-0.6054 -0.504832,-1.0671 -10e-7,-0.4566 0.159395,-0.8184 0.478188,-1.0853 0.318791,-0.2668 0.755845,-0.4004 1.311161,-0.4004 0.512309,0 0.897477,0.1138 1.155506,0.3412 0.258021,0.2276 0.387034,0.5549 0.387037,0.982 z m -1.004055,-0.52 c -0.0056,-0.1856 -0.05796,-0.3252 -0.157059,-0.4189 -0.0991,-0.094 -0.253353,-0.1405 -0.462762,-0.1405 -0.194457,0 -0.35432,0.045 -0.479591,0.1332 -0.125276,0.089 -0.19539,0.2307 -0.210347,0.4262 z"
       style="font-style:normal;font-variant:normal;font-weight:bold;font-stretch:normal;font-size:14px;line-height:117.99999475%;font-family:Verdana;-inkscape-font-specification:'Verdana Bold';text-align:center;text-anchor:middle;fill:#0000ff;fill-opacity:1;stroke-width:0.93732327"
       id="path5391" />
    <path
       d="M 3.9744885,1046.3346 H 0.96232299 v -4.017 H 2.0392982 v 3.2399 h 1.9351903 z"
       style="font-style:normal;font-variant:normal;font-weight:bold;font-stretch:normal;font-size:14px;line-height:117.99999475%;font-family:Verdana;-inkscape-font-specification:'Verdana Bold';text-align:center;text-anchor:middle;fill:#0000ff;fill-opacity:1;stroke-width:0.98076755"
       id="path5393" />
    <path
       d="M 5.9578473,1046.3346 H 4.9481825 v -3.0297 h 1.0096648 z m 0.028048,-3.4613 H 4.9201385 v -0.7365 h 1.0657568 z"
       style="font-style:normal;font-variant:normal;font-weight:bold;font-stretch:normal;font-size:14px;line-height:117.99999475%;font-family:Verdana;-inkscape-font-specification:'Verdana Bold';text-align:center;text-anchor:middle;fill:#0000ff;fill-opacity:1;stroke-width:0.98076755"
       id="path5395" />
    <path
       d="M 10.117782,1046.3346 H 9.1025082 v -1.5026 c -3.3e-6,-0.1224 -0.00654,-0.2443 -0.019632,-0.3658 -0.013091,-0.1213 -0.035526,-0.2107 -0.067311,-0.2683 -0.037397,-0.066 -0.092088,-0.1151 -0.1640705,-0.1457 -0.071987,-0.03 -0.1724865,-0.045 -0.3014968,-0.045 -0.09162,0 -0.1846395,0.014 -0.2790601,0.042 -0.094423,0.028 -0.1967931,0.075 -0.3071063,0.1377 v 2.1475 H 6.9541669 v -3.0298 h 1.0096646 v 0.3346 c 0.1794942,-0.1349 0.3519786,-0.2383 0.5174529,-0.3101 0.1654707,-0.072 0.3491734,-0.108 0.5511085,-0.108 0.3402912,0 0.6062631,0.095 0.7979161,0.2859 0.191645,0.1906 0.28747,0.4758 0.287473,0.8553 z"
       style="font-style:normal;font-variant:normal;font-weight:bold;font-stretch:normal;font-size:14px;line-height:117.99999475%;font-family:Verdana;-inkscape-font-specification:'Verdana Bold';text-align:center;text-anchor:middle;fill:#0000ff;fill-opacity:1;stroke-width:0.98076755"
       id="path5397" />
    <path
       d="m 14.392029,1046.3346 h -1.175138 l -0.883455,-1.3193 -0.274856,0.321 v 0.9983 h -1.009664 v -4.1978 h 1.009664 v 2.5062 l 1.088194,-1.3381 h 1.163919 l -1.133067,1.3057 z"
       style="font-style:normal;font-variant:normal;font-weight:bold;font-stretch:normal;font-size:14px;line-height:117.99999475%;font-family:Verdana;-inkscape-font-specification:'Verdana Bold';text-align:center;text-anchor:middle;fill:#0000ff;fill-opacity:1;stroke-width:0.98076755"
       id="path5399" />
    <path
       d="M 3.9980978,1048.1442 H 2.9511133 v 3.2098 H 2.0865062 v -3.2098 H 1.0395217 v -0.7696 h 2.9585761 z"
       style="font-style:normal;font-variant:normal;font-weight:bold;font-stretch:normal;font-size:14px;line-height:117.99999475%;font-family:Verdana;-inkscape-font-specification:'Verdana Bold';text-align:center;text-anchor:middle;fill:#0000ff;fill-opacity:1;stroke-width:0.97619766"
       id="path5401" />
    <path
       d="M 8.0765101,1050.0359 H 5.7655006 c 0.014959,0.2182 0.1089117,0.385 0.2818646,0.5007 0.17295,0.1157 0.427703,0.1736 0.7642596,0.1736 0.2131489,0 0.4197561,-0.034 0.6198222,-0.1016 0.2000597,-0.067 0.3580536,-0.1405 0.4739813,-0.2181 h 0.1121846 v 0.7163 c -0.2281123,0.082 -0.4431334,0.1397 -0.6450631,0.1759 -0.2019356,0.037 -0.4253705,0.054 -0.670305,0.054 -0.631977,0 -1.1162416,-0.1255 -1.4527952,-0.3768 -0.3365548,-0.2511 -0.5048322,-0.6088 -0.5048322,-1.0733 0,-0.4594 0.1593961,-0.8233 0.4781886,-1.0918 0.3187907,-0.2686 0.7558443,-0.403 1.3111615,-0.403 0.5123082,0 0.8974764,0.1144 1.1555048,0.3435 0.2580219,0.2288 0.387034,0.5581 0.3870378,0.9877 z m -1.0040549,-0.5229 c -0.00561,-0.1869 -0.057966,-0.3272 -0.1570593,-0.4215 -0.099099,-0.094 -0.2533529,-0.1414 -0.4627629,-0.1414 -0.1944555,0 -0.3543186,0.045 -0.4795905,0.134 -0.1252745,0.089 -0.1953899,0.2322 -0.2103467,0.4289 z"
       style="font-style:normal;font-variant:normal;font-weight:bold;font-stretch:normal;font-size:14px;line-height:117.99999475%;font-family:Verdana;-inkscape-font-specification:'Verdana Bold';text-align:center;text-anchor:middle;fill:#0000ff;fill-opacity:1;stroke-width:0.94014323"
       id="path5403" />
    <path
       d="m 12.295249,1051.3188 h -1.177944 l -0.673109,-0.9002 -0.6899372,0.9002 h -1.155505 l 1.2424485,-1.5033 -1.2228162,-1.506 h 1.177942 l 0.6618909,0.8844 0.664696,-0.8844 h 1.158309 l -1.22562,1.4819 z"
       style="font-style:normal;font-variant:normal;font-weight:bold;font-stretch:normal;font-size:14px;line-height:117.99999475%;font-family:Verdana;-inkscape-font-specification:'Verdana Bold';text-align:center;text-anchor:middle;fill:#0000ff;fill-opacity:1;stroke-width:0.97751462"
       id="path5405" />
    <path
       d="m 14.992524,1051.2365 c -0.108447,0.026 -0.223437,0.047 -0.344968,0.063 -0.121537,0.016 -0.270181,0.023 -0.445936,0.023 -0.392649,0 -0.684797,-0.075 -0.876444,-0.2264 -0.191651,-0.1509 -0.287475,-0.4092 -0.287475,-0.7747 v -1.3982 h -0.415084 v -0.6497 h 0.415084 v -0.8548 h 1.009665 v 0.8548 h 0.945158 v 0.6497 h -0.945158 v 1.0598 c -2e-6,0.1048 9.27e-4,0.1963 0.0027,0.2743 0.0019,0.078 0.01683,0.1482 0.04488,0.2103 0.02618,0.063 0.07245,0.1115 0.13883,0.148 0.06637,0.036 0.163134,0.055 0.290278,0.055 0.05235,0 0.121064,-0.011 0.20614,-0.031 0.08507,-0.022 0.144435,-0.041 0.178093,-0.058 h 0.08414 z"
       style="font-style:normal;font-variant:normal;font-weight:bold;font-stretch:normal;font-size:14px;line-height:117.99999475%;font-family:Verdana;-inkscape-font-specification:'Verdana Bold';text-align:center;text-anchor:middle;fill:#0000ff;fill-opacity:1;stroke-width:0.97440016"
       id="path5407" />
  </g>
</svg>
